<mxfile host="Electron" agent="Mozilla/5.0 (Windows NT 10.0; Win64; x64) AppleWebKit/537.36 (KHTML, like Gecko) draw.io/25.0.2 Chrome/128.0.6613.186 Electron/32.2.5 Safari/537.36" version="25.0.2">
  <diagram name="Página-1" id="NS6SylLsxgbZFo2TGUtB">
    <mxGraphModel dx="1434" dy="836" grid="1" gridSize="10" guides="1" tooltips="1" connect="1" arrows="1" fold="1" page="1" pageScale="1" pageWidth="827" pageHeight="1169" math="0" shadow="0">
      <root>
        <mxCell id="0" />
        <mxCell id="1" parent="0" />
        <mxCell id="WVnSAZRPlCwo_dkbkRct-1" value="&lt;div style=&quot;&quot;&gt;&lt;div style=&quot;text-align: left;&quot;&gt;&lt;span style=&quot;background-color: initial;&quot;&gt;4) Todos os funcionários irão receber além do seu Salário Base uma Gratificação que irá corresponder a 10% do seu Salário Base. Somados Salário Base +&amp;nbsp;&lt;/span&gt;&lt;span style=&quot;background-color: initial;&quot;&gt;Gratificação teremos seu Salário Bruto.&lt;/span&gt;&lt;/div&gt;&lt;span style=&quot;background-color: initial;&quot;&gt;&lt;div style=&quot;text-align: left;&quot;&gt;&lt;span style=&quot;background-color: initial;&quot;&gt;Será desconto o IR (Imposto de Renda) de acordo com o Salário Bruto na regra: Até 1.200 = 15% Acima de 1.200 = 20%&lt;/span&gt;&lt;/div&gt;&lt;/span&gt;&lt;/div&gt;&lt;div style=&quot;text-align: left;&quot;&gt;•&amp;nbsp;&lt;span style=&quot;background-color: initial;&quot;&gt;Leia o Salário base&lt;/span&gt;&lt;/div&gt;&lt;div style=&quot;text-align: left;&quot;&gt;•&amp;nbsp;&lt;span style=&quot;background-color: initial;&quot;&gt;Calcular gratificação&lt;/span&gt;&lt;/div&gt;&lt;div style=&quot;text-align: left;&quot;&gt;•&amp;nbsp;&lt;span style=&quot;background-color: initial;&quot;&gt;Calcular Salário Bruto (Salario Base + Gratificacao)&lt;/span&gt;&lt;/div&gt;&lt;div style=&quot;text-align: left;&quot;&gt;•&amp;nbsp;&lt;span style=&quot;background-color: initial;&quot;&gt;Mostrar Salario final (Salario Bruto – IR)&lt;/span&gt;&lt;/div&gt;&lt;div style=&quot;text-align: left;&quot;&gt;Teste de mesa: SBA 900.00 , GRAT 90.00 , SBRU=990.00 , IR 148.50 , SF 841.50&lt;br&gt;Teste de mesa: SBA 1150.00 , GRAT 115.00 , SBRU=1265.00 , IR 253.00, SF&amp;nbsp;1012.00&lt;/div&gt;" style="text;html=1;align=center;verticalAlign=middle;whiteSpace=wrap;rounded=0;" vertex="1" parent="1">
          <mxGeometry x="10" y="10" width="800" height="150" as="geometry" />
        </mxCell>
        <mxCell id="WVnSAZRPlCwo_dkbkRct-12" value="" style="edgeStyle=orthogonalEdgeStyle;rounded=0;orthogonalLoop=1;jettySize=auto;html=1;" edge="1" parent="1" source="WVnSAZRPlCwo_dkbkRct-2" target="WVnSAZRPlCwo_dkbkRct-3">
          <mxGeometry relative="1" as="geometry" />
        </mxCell>
        <mxCell id="WVnSAZRPlCwo_dkbkRct-2" value="INÍCIO" style="ellipse;whiteSpace=wrap;html=1;" vertex="1" parent="1">
          <mxGeometry x="364" y="180" width="100" height="40" as="geometry" />
        </mxCell>
        <mxCell id="WVnSAZRPlCwo_dkbkRct-13" value="" style="edgeStyle=orthogonalEdgeStyle;rounded=0;orthogonalLoop=1;jettySize=auto;html=1;" edge="1" parent="1" source="WVnSAZRPlCwo_dkbkRct-3" target="WVnSAZRPlCwo_dkbkRct-4">
          <mxGeometry relative="1" as="geometry" />
        </mxCell>
        <mxCell id="WVnSAZRPlCwo_dkbkRct-3" value="SALÁRIO BASE" style="shape=parallelogram;html=1;strokeWidth=2;perimeter=parallelogramPerimeter;whiteSpace=wrap;rounded=1;arcSize=12;size=0.23;" vertex="1" parent="1">
          <mxGeometry x="299" y="280" width="230" height="40" as="geometry" />
        </mxCell>
        <mxCell id="WVnSAZRPlCwo_dkbkRct-14" value="" style="edgeStyle=orthogonalEdgeStyle;rounded=0;orthogonalLoop=1;jettySize=auto;html=1;" edge="1" parent="1" source="WVnSAZRPlCwo_dkbkRct-4" target="WVnSAZRPlCwo_dkbkRct-5">
          <mxGeometry relative="1" as="geometry" />
        </mxCell>
        <mxCell id="WVnSAZRPlCwo_dkbkRct-4" value="SALÁRIO BRUTO = SB + GRAT(10%)" style="rounded=1;whiteSpace=wrap;html=1;" vertex="1" parent="1">
          <mxGeometry x="296" y="410" width="236" height="40" as="geometry" />
        </mxCell>
        <mxCell id="WVnSAZRPlCwo_dkbkRct-16" value="" style="edgeStyle=orthogonalEdgeStyle;rounded=0;orthogonalLoop=1;jettySize=auto;html=1;entryX=0.5;entryY=0;entryDx=0;entryDy=0;exitX=1;exitY=0.5;exitDx=0;exitDy=0;" edge="1" parent="1" source="WVnSAZRPlCwo_dkbkRct-5" target="WVnSAZRPlCwo_dkbkRct-6">
          <mxGeometry relative="1" as="geometry">
            <mxPoint x="638" y="585" as="targetPoint" />
          </mxGeometry>
        </mxCell>
        <mxCell id="WVnSAZRPlCwo_dkbkRct-18" value="" style="edgeStyle=orthogonalEdgeStyle;rounded=0;orthogonalLoop=1;jettySize=auto;html=1;entryX=0.458;entryY=-0.075;entryDx=0;entryDy=0;entryPerimeter=0;exitX=0;exitY=0.5;exitDx=0;exitDy=0;" edge="1" parent="1" source="WVnSAZRPlCwo_dkbkRct-5" target="WVnSAZRPlCwo_dkbkRct-7">
          <mxGeometry relative="1" as="geometry">
            <mxPoint x="190" y="585" as="targetPoint" />
          </mxGeometry>
        </mxCell>
        <mxCell id="WVnSAZRPlCwo_dkbkRct-5" value="SALÁRIO BRUTO &amp;lt;= R$1200?" style="rhombus;whiteSpace=wrap;html=1;" vertex="1" parent="1">
          <mxGeometry x="270" y="520" width="288" height="130" as="geometry" />
        </mxCell>
        <mxCell id="WVnSAZRPlCwo_dkbkRct-19" value="" style="edgeStyle=orthogonalEdgeStyle;rounded=0;orthogonalLoop=1;jettySize=auto;html=1;" edge="1" parent="1" source="WVnSAZRPlCwo_dkbkRct-6" target="WVnSAZRPlCwo_dkbkRct-8">
          <mxGeometry relative="1" as="geometry" />
        </mxCell>
        <mxCell id="WVnSAZRPlCwo_dkbkRct-6" value="SALÁRIO BRUTO - 15% IR" style="rounded=1;whiteSpace=wrap;html=1;" vertex="1" parent="1">
          <mxGeometry x="532" y="720" width="236" height="40" as="geometry" />
        </mxCell>
        <mxCell id="WVnSAZRPlCwo_dkbkRct-20" value="" style="edgeStyle=orthogonalEdgeStyle;rounded=0;orthogonalLoop=1;jettySize=auto;html=1;" edge="1" parent="1" source="WVnSAZRPlCwo_dkbkRct-7" target="WVnSAZRPlCwo_dkbkRct-9">
          <mxGeometry relative="1" as="geometry" />
        </mxCell>
        <mxCell id="WVnSAZRPlCwo_dkbkRct-7" value="SALÁRIO BRUTO - 20% IR" style="rounded=1;whiteSpace=wrap;html=1;" vertex="1" parent="1">
          <mxGeometry x="60" y="720" width="236" height="40" as="geometry" />
        </mxCell>
        <mxCell id="WVnSAZRPlCwo_dkbkRct-24" value="" style="edgeStyle=orthogonalEdgeStyle;rounded=0;orthogonalLoop=1;jettySize=auto;html=1;entryX=1;entryY=0.5;entryDx=0;entryDy=0;entryPerimeter=0;exitX=0.5;exitY=1;exitDx=0;exitDy=0;exitPerimeter=0;" edge="1" parent="1" source="WVnSAZRPlCwo_dkbkRct-8" target="WVnSAZRPlCwo_dkbkRct-10">
          <mxGeometry relative="1" as="geometry">
            <mxPoint x="650" y="1000" as="targetPoint" />
          </mxGeometry>
        </mxCell>
        <mxCell id="WVnSAZRPlCwo_dkbkRct-8" value="SALÁRIO FINAL" style="strokeWidth=2;html=1;shape=mxgraph.flowchart.display;whiteSpace=wrap;" vertex="1" parent="1">
          <mxGeometry x="600" y="860" width="100" height="60" as="geometry" />
        </mxCell>
        <mxCell id="WVnSAZRPlCwo_dkbkRct-22" value="" style="edgeStyle=orthogonalEdgeStyle;rounded=0;orthogonalLoop=1;jettySize=auto;html=1;entryX=0;entryY=0.5;entryDx=0;entryDy=0;entryPerimeter=0;exitX=0.5;exitY=1;exitDx=0;exitDy=0;exitPerimeter=0;" edge="1" parent="1" source="WVnSAZRPlCwo_dkbkRct-9" target="WVnSAZRPlCwo_dkbkRct-10">
          <mxGeometry relative="1" as="geometry">
            <mxPoint x="178" y="990" as="targetPoint" />
          </mxGeometry>
        </mxCell>
        <mxCell id="WVnSAZRPlCwo_dkbkRct-9" value="SALÁRIO FINAL" style="strokeWidth=2;html=1;shape=mxgraph.flowchart.display;whiteSpace=wrap;" vertex="1" parent="1">
          <mxGeometry x="128" y="860" width="100" height="60" as="geometry" />
        </mxCell>
        <mxCell id="WVnSAZRPlCwo_dkbkRct-25" value="" style="edgeStyle=orthogonalEdgeStyle;rounded=0;orthogonalLoop=1;jettySize=auto;html=1;" edge="1" parent="1" source="WVnSAZRPlCwo_dkbkRct-10" target="WVnSAZRPlCwo_dkbkRct-11">
          <mxGeometry relative="1" as="geometry" />
        </mxCell>
        <mxCell id="WVnSAZRPlCwo_dkbkRct-10" value="" style="verticalLabelPosition=bottom;verticalAlign=top;html=1;shape=mxgraph.flowchart.on-page_reference;" vertex="1" parent="1">
          <mxGeometry x="399" y="970" width="30" height="30" as="geometry" />
        </mxCell>
        <mxCell id="WVnSAZRPlCwo_dkbkRct-11" value="FIM" style="ellipse;whiteSpace=wrap;html=1;" vertex="1" parent="1">
          <mxGeometry x="364" y="1080" width="100" height="40" as="geometry" />
        </mxCell>
        <mxCell id="WVnSAZRPlCwo_dkbkRct-26" value="SIM" style="text;html=1;align=center;verticalAlign=middle;whiteSpace=wrap;rounded=0;" vertex="1" parent="1">
          <mxGeometry x="620" y="520" width="60" height="30" as="geometry" />
        </mxCell>
        <mxCell id="WVnSAZRPlCwo_dkbkRct-27" value="NÃO" style="text;html=1;align=center;verticalAlign=middle;whiteSpace=wrap;rounded=0;" vertex="1" parent="1">
          <mxGeometry x="148" y="520" width="60" height="30" as="geometry" />
        </mxCell>
      </root>
    </mxGraphModel>
  </diagram>
</mxfile>
